<svg xmlns="http://www.w3.org/2000/svg" width="120" height="120" viewBox="0 0 120 120">
  <!-- Base amber wood tone -->
  <rect width="120" height="120" fill="#c79c5a"/>

  <!-- Pressed wood strands & flakes (virutas prensadas) -->
  <polygon points="5,8 45,5 42,22 8,24" fill="#deb474" stroke="#ad803d" stroke-width="0.8"/>
  <polygon points="35,16 85,12 80,30 38,32" fill="#b88846" stroke="#94672c" stroke-width="0.8"/>
  <polygon points="75,6 115,10 112,26 78,22" fill="#dfb97b" stroke="#ba914e" stroke-width="0.8"/>
  
  <polygon points="-5,35 30,30 25,48 -2,46" fill="#a87937" stroke="#875b22" stroke-width="0.8"/>
  <polygon points="20,40 68,36 64,54 22,56" fill="#deb474" stroke="#ad803d" stroke-width="0.8"/>
  <polygon points="58,32 110,38 105,52 62,48" fill="#c99f5e" stroke="#9e7536" stroke-width="0.8"/>
  <polygon points="98,42 125,40 122,58 95,56" fill="#b88846" stroke="#94672c" stroke-width="0.8"/>

  <polygon points="8,62 55,58 50,75 12,78" fill="#e2be82" stroke="#bd9452" stroke-width="0.8"/>
  <polygon points="45,68 95,64 90,82 48,84" fill="#a47533" stroke="#83571d" stroke-width="0.8"/>
  <polygon points="82,60 122,66 118,80 84,76" fill="#deb474" stroke="#ad803d" stroke-width="0.8"/>

  <polygon points="-8,92 38,88 32,106 -4,104" fill="#b88846" stroke="#94672c" stroke-width="0.8"/>
  <polygon points="25,95 75,90 70,110 28,112" fill="#deb474" stroke="#ad803d" stroke-width="0.8"/>
  <polygon points="65,92 115,96 110,114 68,112" fill="#c99f5e" stroke="#9e7536" stroke-width="0.8"/>

  <polygon points="10,112 55,108 52,125 12,126" fill="#dfb97b" stroke="#ba914e" stroke-width="0.8"/>
  <polygon points="50,115 98,112 95,126 52,128" fill="#a87937" stroke="#875b22" stroke-width="0.8"/>

  <!-- Resin binder dark flecks -->
  <g fill="#613b0e" opacity="0.45">
    <circle cx="22" cy="18" r="1"/><circle cx="65" cy="24" r="1.2"/><circle cx="95" cy="18" r="0.8"/>
    <circle cx="15" cy="50" r="1.1"/><circle cx="48" cy="46" r="0.9"/><circle cx="85" cy="52" r="1.3"/>
    <circle cx="32" cy="80" r="1"/><circle cx="72" cy="74" r="1.1"/><circle cx="108" cy="78" r="0.9"/>
    <circle cx="18" cy="102" r="1.2"/><circle cx="58" cy="106" r="0.8"/><circle cx="88" cy="102" r="1.1"/>
  </g>
</svg>
